<?xml version="1.0" standalone="no"?>
<!DOCTYPE svg PUBLIC "-//W3C//DTD SVG 20010904//EN"
 "http://www.w3.org/TR/2001/REC-SVG-20010904/DTD/svg10.dtd">
<svg version="1.0" xmlns="http://www.w3.org/2000/svg"
 width="377.000000pt" height="377.000000pt" viewBox="0 0 377.000000 377.000000"
 preserveAspectRatio="xMidYMid meet">
<metadata>
Created by potrace 1.11, written by Peter Selinger 2001-2013
</metadata>
<g transform="translate(0.000000,377.000000) scale(0.100000,-0.100000)"
fill="#000000" stroke="none">
<path d="M0 3450 l0 -320 37 41 c47 52 104 85 210 120 166 56 291 68 445 43
43 -7 43 -6 53 77 8 71 44 129 99 161 33 18 56 23 121 24 l80 0 21 55 c12 30
24 69 28 87 l6 33 -208 -3 c-163 -3 -223 -8 -282 -23 -53 -13 -111 -19 -200
-19 -122 -1 -275 18 -286 35 -3 5 -32 9 -65 9 l-59 0 0 -320z"/>
<path d="M1141 3754 c0 -11 3 -14 6 -6 3 7 2 16 -1 19 -3 4 -6 -2 -5 -13z"/>
<path d="M1324 3743 c-3 -16 -12 -47 -20 -70 -18 -49 -15 -96 3 -53 39 92 41
96 42 70 1 -25 -63 -257 -73 -268 -13 -12 -5 39 10 72 18 36 12 85 -6 56 -6
-8 -10 -26 -10 -40 0 -14 -13 -60 -29 -104 -17 -43 -37 -113 -46 -155 -18 -84
-31 -135 -68 -261 -32 -110 -42 -170 -28 -170 6 0 11 11 11 23 0 35 37 137 61
170 11 16 18 31 16 34 -3 2 -13 -7 -23 -21 -28 -44 -28 -20 0 29 15 25 33 45
40 45 9 0 18 33 30 101 9 55 23 114 32 131 23 45 41 97 86 258 22 80 42 153
45 163 4 14 -1 17 -31 17 -31 0 -36 -4 -42 -27z"/>
<path d="M1426 3758 c-3 -7 -11 -35 -20 -62 -9 -27 -14 -52 -11 -54 3 -3 5 0
5 6 0 6 17 27 38 46 28 27 46 36 73 36 23 0 42 7 54 20 18 20 17 20 -59 20
-53 0 -78 -4 -80 -12z"/>
<path d="M2506 3724 c-3 -26 -10 -52 -16 -59 -10 -12 -2 -55 11 -55 8 0 29
-63 29 -87 0 -7 -18 -22 -40 -33 -22 -11 -46 -30 -53 -41 -6 -11 -30 -30 -51
-41 -21 -11 -44 -24 -50 -29 -19 -16 -85 -58 -116 -74 -18 -9 -57 -15 -104
-15 -61 0 -77 -3 -85 -17 -5 -10 -28 -38 -51 -63 -75 -81 -101 -126 -116 -209
-1 -8 -8 -17 -15 -21 -16 -11 41 -40 77 -40 22 0 25 -2 14 -15 -15 -18 -7 -19
20 -3 16 10 36 9 102 -5 46 -10 126 -27 180 -37 53 -10 120 -25 150 -33 29 -8
82 -20 118 -26 126 -24 319 -122 404 -207 53 -53 65 -73 68 -114 1 -21 11 -42
23 -52 17 -14 20 -26 17 -80 -9 -216 1 -437 19 -449 7 -4 8 -13 2 -25 -6 -13
-4 -52 7 -116 8 -54 12 -98 8 -98 -4 0 -8 9 -8 19 0 22 -19 39 -21 19 -1 -7
-1 -16 0 -20 0 -5 -6 -8 -15 -8 -8 0 -13 -4 -9 -9 3 -5 1 -12 -4 -16 -6 -3 -8
-12 -5 -19 3 -8 0 -17 -5 -21 -6 -3 -9 -11 -6 -16 3 -5 -1 -6 -9 -3 -11 4 -16
0 -16 -10 0 -9 4 -16 8 -16 5 0 8 -16 7 -35 0 -22 4 -35 12 -35 6 0 15 -5 19
-12 5 -7 3 -8 -6 -3 -10 6 -12 4 -7 -8 3 -9 2 -19 -2 -22 -14 -8 -4 -78 13
-91 23 -16 20 -27 -3 -14 -24 12 -34 13 -27 1 7 -11 -3 -41 -13 -41 -4 0 -8
34 -9 76 -1 72 -9 104 -19 77 -2 -7 -12 -10 -21 -7 -9 2 -7 -1 6 -7 21 -11 22
-17 19 -101 -4 -90 -18 -128 -37 -98 -13 21 -12 38 1 20 9 -12 10 -12 5 3 -3
10 -6 23 -6 28 0 5 -8 9 -17 9 -13 0 -14 -3 -5 -12 7 -7 8 -17 1 -30 -11 -20
-29 -25 -29 -7 0 5 5 7 10 4 6 -3 10 3 10 14 0 21 -25 30 -32 11 -2 -7 -10 -6
-21 2 -15 12 -14 13 15 14 18 1 34 6 36 12 2 6 10 8 18 5 8 -3 14 0 14 7 0 8
-9 10 -24 6 -14 -3 -28 0 -35 8 -8 10 -5 16 15 25 15 6 24 14 21 17 -10 10 26
42 41 36 10 -3 13 -1 8 6 -9 15 -36 16 -36 2 0 -7 -8 -7 -22 1 -17 9 -23 9
-26 -1 -4 -10 -6 -10 -12 0 -11 18 -29 3 -25 -20 2 -12 0 -18 -6 -15 -5 4 -7
11 -4 16 4 5 0 9 -7 9 -8 0 -6 5 5 11 9 6 15 15 11 21 -4 7 0 6 13 -1 20 -10
33 -6 33 11 0 4 -10 8 -22 8 -19 0 -20 2 -8 10 10 6 11 10 3 10 -7 0 -13 5
-13 11 0 6 7 9 15 5 23 -9 18 0 -12 20 -24 15 -26 15 -14 1 10 -13 10 -17 1
-17 -10 0 -10 -3 -1 -14 16 -19 -15 -37 -50 -30 l-24 5 25 -15 25 -16 -30 6
c-16 4 -38 11 -47 16 -11 5 -18 5 -18 0 0 -10 31 -39 37 -34 1 1 2 -1 1 -5 -4
-11 -19 -5 -40 14 -17 15 -18 15 -18 -3 0 -12 -3 -15 -8 -8 -12 19 -75 48 -70
32 3 -7 10 -14 16 -14 7 -1 17 -2 22 -3 6 0 10 -6 10 -12 0 -5 -4 -7 -10 -4
-5 3 -19 1 -30 -5 -16 -9 -25 -8 -36 1 -8 6 -18 9 -21 5 -4 -4 -1 -11 7 -16
13 -8 12 -10 -3 -10 -9 0 -25 9 -34 20 -10 11 -22 20 -28 20 -5 0 -3 -5 5 -10
13 -9 13 -11 0 -19 -10 -7 -17 -6 -22 2 -7 11 -12 2 -9 -16 1 -5 -3 -6 -9 -2
-6 3 -8 9 -6 13 2 4 -2 16 -11 27 -13 19 -14 18 -7 -9 5 -21 4 -27 -5 -22 -6
4 -11 1 -11 -6 -1 -7 -10 -2 -21 11 -17 21 -22 22 -30 10 -5 -7 -8 -18 -8 -24
0 -5 3 -4 6 3 7 19 19 14 31 -13 7 -15 8 -27 2 -30 -6 -4 -10 -1 -10 4 0 6 -6
11 -14 11 -8 0 -17 9 -21 19 -3 11 -13 22 -22 25 -13 5 -14 4 -4 -8 13 -16 -2
-32 -20 -21 -5 4 -19 -3 -30 -16 -21 -24 -25 -19 -9 12 8 13 8 24 0 37 -9 14
-10 13 -4 -7 5 -19 3 -23 -8 -18 -11 4 -14 -1 -10 -21 l5 -26 -31 32 -32 33 0
-27 c0 -15 -3 -24 -7 -21 -3 4 -12 2 -20 -4 -9 -9 -13 -8 -13 0 0 6 -10 11
-22 11 -19 0 -20 -2 -8 -10 10 -7 11 -10 2 -10 -7 0 -15 7 -18 15 -8 20 -21
19 -27 -2 -3 -10 -6 -2 -7 17 -4 42 -6 63 -9 70 -2 3 -5 84 -7 180 -5 181 -8
205 -23 196 -5 -3 -22 1 -37 9 -25 13 -30 13 -45 -1 -18 -16 -59 -11 -59 7 0
5 -7 9 -15 9 -8 0 -15 -5 -15 -11 0 -7 -7 -8 -17 -4 -10 4 -36 9 -58 12 -49 6
-48 5 -36 35 8 22 14 24 55 22 25 -2 51 -6 56 -9 6 -3 10 1 10 9 0 19 -5 19
59 0 102 -30 206 4 185 61 -6 15 -4 16 12 7 13 -7 26 -7 37 -1 12 7 17 6 17
-3 0 -8 3 -9 8 -3 8 11 34 17 75 16 17 0 25 4 21 11 -4 6 -23 8 -45 5 -22 -3
-41 -1 -45 4 -3 5 -16 2 -30 -7 -17 -11 -28 -13 -37 -6 -6 5 -26 13 -42 16
-26 6 -31 4 -32 -15 -1 -14 3 -19 13 -15 21 8 17 -12 -6 -24 -17 -9 -20 -8
-20 7 0 14 -2 15 -9 4 -9 -14 -51 -7 -51 10 0 5 -7 9 -15 9 -8 0 -15 -4 -15
-10 0 -5 -10 -10 -22 -10 -12 0 -18 3 -15 7 4 3 -3 13 -14 21 -18 12 -23 13
-31 1 -7 -10 -8 -5 -4 16 l6 30 -19 -23 c-11 -12 -23 -22 -28 -21 -18 3 -33
-2 -33 -11 0 -5 7 -10 16 -10 8 0 13 -4 10 -9 -8 -12 -56 -1 -53 13 1 6 -5 11
-13 11 -8 0 -14 -6 -12 -12 3 -18 -50 -16 -74 2 -23 17 -43 20 -26 3 20 -20
13 -31 -15 -23 -49 13 -119 17 -208 13 -52 -2 -198 12 -269 26 -44 9 -81 14
-83 12 -7 -6 89 -36 116 -36 26 0 169 -28 181 -35 3 -2 44 -7 90 -10 47 -4 87
-10 90 -13 10 -13 48 -16 155 -9 29 2 32 -4 26 -52 -1 -12 -65 -21 -72 -9 -12
19 -55 18 -77 -2 -14 -14 -22 -16 -25 -7 -3 7 -6 8 -6 2 -1 -6 -41 -10 -101
-9 -91 0 -100 -2 -100 -19 0 -10 -4 -16 -9 -13 -13 9 -18 -11 -20 -88 -1 -39
-4 -73 -7 -78 -3 -4 -7 -32 -9 -62 -5 -68 -28 -106 -61 -104 -18 2 -24 8 -24
25 0 22 0 23 -19 4 -10 -10 -20 -23 -22 -29 -3 -7 -15 -6 -37 5 l-33 16 21 19
c12 11 19 23 16 26 -4 3 -21 -9 -39 -26 -35 -34 -53 -41 -43 -17 3 8 1 15 -4
15 -6 0 -10 -9 -10 -19 0 -27 -17 -35 -28 -14 -8 14 -13 15 -26 4 -8 -7 -20
-10 -26 -6 -5 3 -10 1 -10 -5 0 -6 -5 -8 -10 -5 -16 10 7 45 25 39 10 -4 15 0
15 10 0 13 -4 15 -18 8 -9 -5 -23 -7 -29 -5 -7 3 -13 -1 -14 -9 -1 -7 -2 -22
-3 -33 0 -12 -9 -21 -21 -22 -11 -2 -14 0 -7 3 6 3 12 10 12 15 0 6 -5 7 -11
3 -8 -4 -9 0 -4 15 4 12 2 21 -4 21 -6 0 -14 -12 -17 -26 -5 -19 -9 -22 -15
-12 -7 11 -11 10 -19 -2 -10 -13 -11 -13 -9 0 1 8 -2 25 -7 38 l-10 24 -12
-27 c-7 -14 -17 -23 -23 -20 -5 4 -20 -1 -31 -12 -21 -18 -21 -18 -9 6 10 18
10 25 0 35 -9 8 -10 8 -5 -1 4 -7 2 -13 -4 -13 -6 0 -8 -5 -4 -11 4 -7 1 -10
-7 -7 -8 3 -13 12 -13 21 1 13 -2 14 -16 7 -10 -5 -21 -15 -23 -22 -4 -10 -6
-10 -6 0 -1 8 8 27 20 43 27 38 15 37 -18 -1 -13 -17 -29 -27 -34 -24 -6 3 -6
11 1 20 7 7 10 19 7 26 -4 9 -6 8 -6 -3 -1 -17 -41 -34 -41 -18 0 5 7 9 15 9
8 0 15 5 15 10 0 6 -6 10 -12 9 -35 -4 -59 2 -52 14 6 10 4 10 -7 0 -7 -7 -21
-13 -32 -13 -31 0 5 28 42 32 17 2 31 7 31 11 0 4 0 10 0 13 0 4 -6 1 -14 -6
-8 -6 -23 -10 -34 -8 -10 2 -26 -3 -35 -11 -21 -17 -22 -5 -2 15 8 9 19 12 25
9 5 -3 18 -1 27 5 16 9 15 10 -4 5 -14 -4 -23 -2 -23 5 0 6 -15 0 -32 -13 -18
-14 -39 -22 -47 -19 -8 3 -11 0 -7 -7 4 -6 2 -11 -4 -11 -7 0 -9 -7 -6 -16 3
-9 2 -12 -5 -9 -6 4 -8 13 -5 21 7 17 -8 18 -26 2 -18 -17 -38 -21 -38 -7 0 5
-5 7 -12 3 -6 -4 -8 -3 -5 4 4 5 15 9 25 7 9 -1 23 3 31 9 7 6 19 11 25 12 6
0 19 2 29 2 9 1 17 6 17 12 0 5 -7 7 -15 4 -10 -4 -14 -1 -12 7 2 8 2 11 0 6
-3 -4 -10 -4 -16 0 -7 4 -6 -1 2 -10 8 -10 9 -17 3 -17 -6 0 -14 5 -17 10 -3
6 -12 10 -18 10 -7 0 -6 -4 3 -10 13 -8 13 -10 -1 -10 -22 0 -31 11 -19 24 18
22 -3 34 -35 19 -22 -10 -24 -13 -7 -9 15 3 22 0 19 -7 -3 -7 -10 -11 -16 -9
-7 1 -10 -2 -6 -7 3 -6 12 -8 20 -4 8 3 15 0 15 -6 0 -6 -13 -11 -29 -11 -36
0 -46 -13 -26 -33 18 -18 20 -41 3 -31 -8 5 -9 2 -5 -9 3 -9 2 -19 -4 -23 -6
-4 -6 -11 2 -20 9 -11 8 -14 -2 -14 -11 0 -11 -2 1 -10 11 -7 11 -10 2 -10 -7
0 -10 -4 -7 -10 9 -14 25 -12 25 3 0 7 9 13 19 13 11 0 17 -4 15 -8 -3 -4 0
-17 6 -28 8 -16 8 -20 -3 -20 -20 0 -40 -27 -31 -41 5 -8 12 -5 24 11 10 13
22 20 29 16 6 -4 9 -11 7 -15 -3 -4 4 -14 15 -21 20 -15 26 -40 9 -40 -5 0
-10 -7 -10 -15 0 -8 5 -15 10 -15 6 0 10 5 10 11 0 6 12 -3 26 -20 14 -17 30
-29 35 -25 5 3 4 -7 -1 -21 -11 -29 -3 -78 11 -70 4 3 4 17 -1 30 -7 20 -6 25
11 30 11 4 28 1 37 -6 14 -11 15 -11 5 1 -29 32 4 57 36 28 11 -11 13 -10 7 0
-4 7 0 15 10 19 16 6 16 7 -2 14 -13 5 -7 7 18 6 21 -1 40 -7 42 -14 3 -7 -1
-10 -10 -6 -12 4 -14 -2 -9 -36 4 -32 2 -41 -10 -41 -8 0 -15 -9 -15 -20 0
-11 6 -20 14 -20 20 0 40 -26 26 -35 -6 -3 -7 -12 -3 -18 8 -12 13 -33 15 -54
1 -7 10 -13 20 -13 10 0 18 -4 18 -10 0 -5 -4 -10 -10 -10 -5 0 -10 -5 -10
-10 0 -6 9 -5 22 3 30 18 35 17 84 -16 26 -17 58 -29 90 -32 27 -2 49 -5 49
-5 0 -3 53 -12 80 -13 18 -1 33 -9 37 -20 8 -19 28 -23 28 -6 0 6 9 8 23 3 12
-4 32 -7 44 -6 13 1 23 -2 23 -7 0 -5 3 -18 7 -28 7 -17 6 -17 -21 0 -15 10
-30 16 -33 13 -9 -9 18 -36 30 -29 5 3 8 2 4 -3 -3 -5 0 -20 7 -33 8 -14 16
-19 20 -13 3 6 2 13 -4 17 -12 8 10 45 27 45 16 0 16 0 -3 -40 -13 -25 -14
-34 -4 -40 10 -6 6 -15 -14 -36 -14 -16 -26 -24 -26 -18 0 7 7 17 15 24 21 17
19 33 -3 26 -10 -4 -27 1 -38 9 -11 8 -14 15 -6 15 10 0 10 4 0 20 -15 23 -33
27 -24 5 5 -15 -26 -39 -38 -28 -10 10 -7 -7 6 -30 10 -20 10 -21 -5 -8 -15
12 -17 11 -17 -3 0 -9 -5 -16 -10 -16 -6 0 -15 -11 -20 -25 -6 -17 -14 -23
-25 -19 -13 5 -15 1 -11 -22 4 -20 -1 -35 -15 -50 -18 -19 -18 -22 -4 -34 11
-9 12 -16 4 -26 -12 -15 -4 -34 14 -34 7 0 19 -9 27 -20 15 -20 40 -27 40 -11
0 10 12 9 48 -3 12 -4 22 -12 22 -17 0 -12 -14 -11 -27 2 -7 7 -13 7 -17 1 -3
-5 0 -14 7 -20 19 -15 57 -24 57 -14 0 5 11 7 25 4 14 -2 25 -8 25 -12 0 -14
74 -53 78 -41 2 7 12 5 27 -5 16 -10 25 -12 30 -4 3 6 10 8 15 5 5 -3 32 0 60
6 51 11 51 11 33 32 -16 18 -16 20 -1 14 10 -3 19 0 22 9 9 23 7 31 -3 15 -8
-12 -14 -7 -31 22 -12 20 -27 37 -33 37 -6 0 -7 3 -4 6 4 4 13 1 22 -6 22 -19
28 -7 7 16 -9 10 -17 26 -17 34 0 8 -6 14 -13 12 -8 -1 -11 2 -7 8 9 15 35 12
41 -4 3 -8 12 -12 19 -10 7 3 16 -4 20 -15 3 -12 9 -19 13 -17 4 2 28 1 55 -4
39 -6 47 -4 47 9 0 13 2 14 9 2 5 -8 18 -12 30 -8 12 3 19 1 15 -4 -7 -12 3
-11 26 1 13 7 21 6 30 -5 9 -11 16 -12 26 -4 9 7 18 7 33 0 11 -6 31 -11 45
-11 33 0 84 -31 78 -48 -3 -9 3 -11 20 -8 12 3 40 8 61 11 32 5 36 9 27 21
-10 11 -8 14 13 14 14 0 28 4 31 9 4 5 25 12 47 16 41 7 148 59 160 78 4 5 30
7 60 3 49 -5 52 -4 35 9 -11 8 -28 15 -38 15 -10 0 -18 7 -18 15 0 21 36 59
48 51 6 -3 17 1 25 9 25 25 46 18 52 -18 8 -40 -3 -70 -44 -121 -25 -31 -30
-46 -26 -68 4 -18 3 -28 -5 -28 -7 0 -10 -7 -6 -16 4 -9 2 -22 -3 -28 -5 -6
-18 -42 -30 -81 -22 -75 -71 -188 -83 -193 -5 -2 -8 -10 -8 -17 0 -8 -23 -42
-51 -75 -47 -57 -53 -61 -85 -57 -19 3 -34 1 -34 -3 0 -5 -12 -11 -27 -13 -16
-2 387 -5 895 -6 l922 -1 0 1010 0 1011 -39 53 c-33 44 -46 54 -78 59 -46 8
-239 -24 -271 -44 -23 -14 -29 -43 -12 -54 17 -10 11 -35 -8 -35 -29 0 -53 34
-78 107 -20 59 -21 70 -9 109 7 23 22 56 34 72 24 34 26 53 9 70 -10 10 -10
15 2 22 8 5 12 10 7 10 -4 0 -1 10 7 23 11 16 14 43 11 101 -4 86 2 74 -106
187 -41 42 -72 89 -112 172 -48 97 -62 117 -89 128 -34 13 -156 134 -209 205
-17 23 -43 48 -57 55 -15 8 -36 22 -47 32 -11 10 -32 25 -47 33 -28 14 -60 66
-71 114 -8 32 6 86 22 83 6 -2 11 0 11 5 0 12 173 7 198 -6 12 -7 30 -25 39
-40 10 -15 20 -29 24 -32 3 -3 14 -21 24 -40 10 -19 27 -43 39 -54 41 -36 197
-96 250 -96 35 0 66 33 66 70 0 17 -12 49 -26 72 -20 31 -30 68 -41 142 -20
143 -19 159 6 195 l22 31 -364 0 -364 0 -7 -46z m922 -1823 c67 -72 105 -157
110 -249 5 -95 -10 -153 -51 -198 -52 -57 -147 -64 -191 -15 -10 11 -38 80
-63 153 -55 160 -60 230 -24 295 27 47 50 61 106 65 56 4 65 1 113 -51z
m-1532 -181 c0 -52 3 -106 7 -120 5 -23 -19 -70 -37 -70 -7 0 1 108 9 121 3 5
-1 23 -9 41 -14 30 -19 102 -9 121 3 4 12 7 21 5 14 -3 17 -18 18 -98z m109
71 c-6 -21 -25 -29 -25 -11 0 6 5 10 10 10 6 0 10 8 10 17 0 9 3 14 6 10 3 -3
3 -15 -1 -26z m-478 -13 c-3 -8 -6 -5 -6 6 -1 11 2 17 5 13 3 -3 4 -12 1 -19z
m147 -17 c-4 -17 -9 -30 -11 -27 -3 2 -2 19 2 36 4 17 9 30 11 27 2 -2 1 -18
-2 -36z m-110 -221 c-7 -90 -15 -85 -28 20 -4 35 -3 50 3 41 6 -10 12 16 18
80 l8 94 3 -75 c2 -41 0 -113 -4 -160z m23 208 c-3 -8 -6 -5 -6 6 -1 11 2 17
5 13 3 -3 4 -12 1 -19z m68 -89 c-6 -70 -32 -179 -47 -194 -7 -7 -8 0 -5 20 3
17 8 48 12 70 6 46 36 165 41 165 2 0 1 -27 -1 -61z m-28 39 c-2 -7 -10 -12
-17 -10 -8 2 -10 -6 -5 -28 5 -22 3 -30 -7 -30 -17 0 -12 61 6 72 17 12 28 9
23 -4z m229 -55 c-11 -11 -19 6 -11 24 8 17 8 17 12 0 3 -10 2 -21 -1 -24z
m-530 -29 c9 3 12 1 9 -4 -12 -19 -35 -10 -34 13 1 18 2 18 6 4 3 -11 11 -16
19 -13z m1756 -209 c-8 -115 -17 -103 -15 18 5 200 6 209 13 127 4 -41 5 -106
2 -145z m-1605 183 c-3 -8 -6 -5 -6 6 -1 11 2 17 5 13 3 -3 4 -12 1 -19z m133
-12 c0 -16 -18 -31 -27 -22 -8 8 5 36 17 36 5 0 10 -6 10 -14z m-270 -6 c0 -5
-5 -10 -11 -10 -5 0 -7 5 -4 10 3 6 8 10 11 10 2 0 4 -4 4 -10z m-1002 -62
c-12 -9 -19 -20 -15 -24 4 -4 13 -2 19 4 17 17 33 15 18 -3 -7 -8 -23 -15 -37
-15 -21 0 -22 3 -13 20 6 11 8 25 5 30 -3 6 5 9 20 8 l26 -2 -23 -18z m82 12
c0 -5 -5 -10 -11 -10 -5 0 -7 5 -4 10 3 6 8 10 11 10 2 0 4 -4 4 -10z m1490 0
c0 -5 -4 -10 -10 -10 -5 0 -10 5 -10 10 0 6 5 10 10 10 6 0 10 -4 10 -10z
m-440 -31 c0 -5 -4 -9 -10 -9 -5 0 -10 7 -10 16 0 8 5 12 10 9 6 -3 10 -10 10
-16z m21 -12 c-8 -8 -11 -7 -11 4 0 9 3 19 7 23 4 4 9 2 11 -4 3 -7 -1 -17 -7
-23z m-1091 2 c0 8 3 11 6 8 4 -4 2 -13 -4 -20 -7 -8 -10 -17 -7 -20 3 -4 2
-5 -2 -2 -4 3 -8 16 -10 28 -2 17 -1 19 7 7 8 -12 10 -13 10 -1z m377 -16 c-9
-9 -20 -13 -24 -9 -4 4 -1 11 7 16 25 16 35 11 17 -7z m333 -9 c0 -16 -16 -19
-25 -4 -8 13 4 32 16 25 5 -4 9 -13 9 -21z m66 -1 c-10 -10 -19 5 -10 18 6 11
8 11 12 0 2 -7 1 -15 -2 -18z m-802 -22 c-8 -9 -22 12 -17 26 6 15 7 14 13 -3
4 -10 6 -21 4 -23z m616 25 c0 -3 -4 -8 -10 -11 -5 -3 -10 -1 -10 4 0 6 5 11
10 11 6 0 10 -2 10 -4z m80 -6 c0 -5 -4 -10 -10 -10 -5 0 -10 5 -10 10 0 6 5
10 10 10 6 0 10 -4 10 -10z m-680 -45 c7 -9 8 -15 2 -15 -5 0 -12 7 -16 15 -3
8 -4 15 -2 15 2 0 9 -7 16 -15z m2466 3 c4 -6 3 -8 -4 -4 -5 3 -12 1 -14 -6
-3 -8 -7 -6 -11 5 -7 20 17 24 29 5z m-71 -8 c3 -6 -1 -7 -9 -4 -18 7 -21 14
-7 14 6 0 13 -4 16 -10z m-2147 -51 c10 -16 10 -24 -3 -42 -17 -24 -20 -16 -5
13 7 14 5 19 -9 23 -23 6 -42 -10 -35 -28 3 -7 1 -16 -5 -20 -12 -7 -14 9 -5
52 5 24 10 29 28 26 12 -3 28 -13 34 -24z m2196 -11 c6 -4 7 -8 2 -8 -5 0 -18
7 -28 17 -14 13 -18 13 -20 2 0 -8 -2 -21 -3 -29 -1 -8 4 -22 9 -30 10 -13 9
-13 -6 -1 -10 7 -18 20 -18 27 0 8 -6 14 -12 14 -9 0 -8 4 2 10 8 5 11 10 5
10 -5 0 1 7 15 15 22 12 26 11 34 -3 5 -9 14 -20 20 -24z m-104 2 c0 -5 -5
-10 -11 -10 -5 0 -7 5 -4 10 3 6 8 10 11 10 2 0 4 -4 4 -10z m277 -22 c-3 -8
-6 -5 -6 6 -1 11 2 17 5 13 3 -3 4 -12 1 -19z m-292 -6 c-3 -3 -11 0 -18 7 -9
10 -8 11 6 5 10 -3 15 -9 12 -12z m45 -24 c0 -13 -23 -5 -28 10 -2 7 2 10 12
6 9 -3 16 -11 16 -16z m-42 -6 c6 -18 -15 -14 -22 4 -4 10 -1 14 6 12 6 -2 14
-10 16 -16z m95 -42 c-23 -22 -28 -18 -12 8 7 12 17 18 22 15 4 -3 0 -13 -10
-23z m47 -10 c-6 -11 -8 -20 -4 -20 3 0 1 -7 -6 -15 -6 -8 -9 -19 -5 -25 7
-12 -5 -13 -22 -2 -18 11 20 81 45 82 1 0 -2 -9 -8 -20z m-122 -35 c5 -10 15
-13 25 -9 9 3 14 11 11 16 -4 6 -1 9 7 6 8 -3 16 -13 17 -23 2 -10 0 -15 -6
-11 -6 4 -9 -4 -8 -17 2 -13 -2 -24 -8 -24 -6 0 -20 -4 -31 -8 -11 -4 -16 -3
-10 2 15 12 12 40 -8 63 -9 11 -13 20 -7 20 5 0 13 -7 18 -15z m-68 -5 c0 -5
-7 -7 -15 -4 -8 4 -15 8 -15 10 0 2 7 4 15 4 8 0 15 -4 15 -10z m-337 -35 c-3
-9 -8 -14 -10 -11 -3 3 -2 9 2 15 9 16 15 13 8 -4z m347 -96 c0 -5 -4 -9 -10
-9 -5 0 -10 7 -10 16 0 8 5 12 10 9 6 -3 10 -10 10 -16z m10 -49 c8 -15 6 -21
-9 -30 -16 -8 -21 -6 -26 10 -12 38 16 55 35 20z m-1450 -86 c0 -17 -12 -18
-28 -2 -18 18 -15 27 8 21 11 -3 20 -12 20 -19z m2132 -2 c116 -51 98 -132
-48 -220 -92 -55 -278 -102 -391 -100 -39 1 -43 3 -43 27 0 33 90 301 101 301
5 0 9 -4 9 -9 0 -5 12 -7 28 -4 188 36 268 38 344 5z m-2192 -32 c0 -5 -7 -10
-16 -10 -8 0 -12 5 -9 10 3 6 10 10 16 10 5 0 9 -4 9 -10z m160 -10 c0 -5 -7
-10 -15 -10 -8 0 -15 5 -15 10 0 6 7 10 15 10 8 0 15 -4 15 -10z m-83 -34 c-8
-8 -17 -12 -21 -9 -3 3 2 12 12 19 9 7 19 11 21 9 2 -2 -3 -11 -12 -19z m1283
-106 c0 -5 -4 -10 -10 -10 -5 0 -10 5 -10 10 0 6 5 10 10 10 6 0 10 -4 10 -10z
m-880 -24 c0 -8 -4 -17 -9 -21 -12 -7 -24 12 -16 25 9 15 25 12 25 -4z m55 4
c3 -5 -3 -10 -14 -10 -12 0 -21 5 -21 10 0 6 6 10 14 10 8 0 18 -4 21 -10z
m505 0 c0 -5 -5 -10 -11 -10 -5 0 -7 5 -4 10 3 6 8 10 11 10 2 0 4 -4 4 -10z
m-657 -17 c-7 -2 -19 -2 -25 0 -7 3 -2 5 12 5 14 0 19 -2 13 -5z m-211 -53 c4
0 8 7 8 15 0 8 5 15 10 15 6 0 10 -7 10 -15 0 -9 6 -12 18 -8 14 5 15 3 5 -8
-15 -16 -17 -33 -3 -24 6 3 10 -1 10 -9 0 -13 -4 -13 -32 2 -17 9 -37 21 -42
25 -6 4 -20 14 -31 22 -18 13 -18 14 -2 15 9 0 17 6 18 13 1 6 6 0 12 -15 6
-16 14 -28 19 -28z m-367 11 c3 -5 0 -13 -6 -17 -7 -4 -9 -3 -5 4 3 5 0 13 -6
15 -9 4 -10 6 -1 6 6 1 14 -3 18 -8z m702 -7 c-3 -3 -12 -4 -19 -1 -8 3 -5 6
6 6 11 1 17 -2 13 -5z m-386 -17 c-1 -12 -15 -9 -19 4 -3 6 1 10 8 8 6 -3 11
-8 11 -12z m-286 -16 c3 -5 1 -12 -5 -16 -5 -3 -10 1 -10 9 0 18 6 21 15 7z
m-60 -29 c-3 -3 -11 0 -18 7 -9 10 -8 11 6 5 10 -3 15 -9 12 -12z m100 0 c-3
-3 -11 0 -18 7 -9 10 -8 11 6 5 10 -3 15 -9 12 -12z m1405 -142 c0 -5 -4 -10
-10 -10 -5 0 -10 5 -10 10 0 6 5 10 10 10 6 0 10 -4 10 -10z m-1233 -26 c-3
-3 -12 -4 -19 -1 -8 3 -5 6 6 6 11 1 17 -2 13 -5z m1133 -288 c0 -3 -4 -8 -10
-11 -5 -3 -10 -1 -10 4 0 6 5 11 10 11 6 0 10 -2 10 -4z"/>
<path d="M1067 3577 c-37 -87 -67 -212 -73 -300 l-5 -72 22 65 c11 36 27 72
34 80 14 16 22 54 30 140 3 30 8 70 11 88 6 41 -2 41 -19 -1z"/>
<path d="M1207 3073 c-4 -3 -7 -11 -7 -17 0 -6 5 -5 12 2 6 6 9 14 7 17 -3 3
-9 2 -12 -2z"/>
<path d="M331 3041 c-14 -19 -21 -45 -21 -73 0 -23 -7 -56 -15 -72 -21 -41
-19 -81 10 -141 31 -66 28 -125 -7 -163 -74 -79 -77 -157 -8 -235 17 -19 27
-37 23 -39 -5 -3 -3 -4 3 -2 6 1 18 -5 27 -14 52 -56 64 -48 29 19 -20 36 -28
45 -33 32 -5 -15 -6 -15 -12 1 -4 10 -4 22 -1 27 3 5 0 8 -8 7 -8 -2 -13 7
-14 22 0 14 -4 35 -8 47 -9 28 20 128 50 168 12 17 42 51 68 76 25 26 46 55
46 66 0 32 30 57 111 97 43 21 86 47 97 59 26 29 37 90 19 106 -31 25 -114 41
-224 41 l-112 0 -20 -29z"/>
<path d="M1094 2760 c-7 -30 -11 -56 -10 -56 0 -1 20 -4 42 -7 37 -4 41 -3 37
14 -3 11 -16 22 -29 25 -18 5 -24 14 -26 42 -3 35 -3 35 -14 -18z"/>
<path d="M2530 2755 c0 -6 56 -30 91 -39 13 -3 0 5 -30 19 -57 26 -61 28 -61
20z"/>
<path d="M2717 2669 c7 -7 15 -10 18 -7 3 3 -2 9 -12 12 -14 6 -15 5 -6 -5z"/>
<path d="M1196 2603 c-3 -25 -6 -55 -5 -67 1 -28 20 41 20 72 -1 13 4 20 9 17
6 -3 10 -2 10 3 0 6 -6 12 -14 15 -10 4 -15 -7 -20 -40z"/>
<path d="M1305 2600 c3 -5 8 -10 11 -10 2 0 4 5 4 10 0 6 -5 10 -11 10 -5 0
-7 -4 -4 -10z"/>
<path d="M1536 2591 c-3 -5 0 -11 7 -14 8 -3 14 1 14 9 0 16 -13 19 -21 5z"/>
<path d="M1643 2587 c12 -10 14 -17 7 -22 -5 -3 -8 -11 -5 -16 3 -5 -1 -6 -10
-2 -12 4 -13 8 -5 13 8 5 8 10 2 14 -18 11 -23 -26 -5 -40 30 -23 52 -26 73
-11 20 14 19 14 -6 26 -24 10 -26 10 -20 -6 6 -14 5 -15 -5 -6 -10 10 -9 15 1
27 10 13 9 17 -6 22 -11 4 -23 9 -29 11 -5 3 -2 -2 8 -10z"/>
<path d="M2020 2586 c0 -2 7 -9 15 -16 9 -7 15 -8 15 -2 0 5 -7 12 -15 16 -8
3 -15 4 -15 2z"/>
<path d="M1907 2569 c7 -7 15 -10 18 -7 3 3 -2 9 -12 12 -14 6 -15 5 -6 -5z"/>
<path d="M1946 2525 c2 -31 0 -34 -17 -24 -14 7 -27 6 -46 -5 -16 -8 -21 -15
-13 -16 11 0 11 -3 2 -12 -10 -10 -15 -10 -22 2 -8 12 -10 11 -10 -5 0 -11 -4
-15 -8 -10 -20 29 -112 64 -112 44 0 -5 -7 -6 -15 -3 -8 4 -15 1 -15 -5 0 -6
18 -14 40 -17 22 -4 40 -11 40 -16 0 -6 11 -7 25 -4 15 4 25 2 25 -4 0 -6 -4
-9 -9 -6 -15 9 -19 -18 -5 -31 17 -17 25 -16 18 2 -4 8 -2 15 4 15 14 0 22
-38 8 -44 -6 -2 5 -2 24 1 27 3 31 2 20 -6 -21 -15 -67 -14 -73 2 -2 6 -8 9
-12 5 -12 -11 18 -35 40 -31 20 3 20 3 0 -5 -11 -5 -25 -7 -31 -5 -6 2 -14 -3
-18 -12 -3 -10 -12 -15 -21 -11 -8 3 -17 1 -20 -5 -9 -14 -75 -7 -75 8 0 7 -5
13 -11 13 -5 0 -7 -5 -3 -12 5 -8 2 -9 -9 -5 -9 3 -19 2 -22 -3 -4 -6 -11 -10
-16 -10 -16 0 0 60 22 84 25 26 24 42 -2 49 -20 5 -20 5 -3 -14 17 -19 17 -20
-2 -13 -15 5 -16 4 -4 -5 8 -6 11 -11 5 -11 -13 0 -43 20 -30 20 6 0 3 5 -5
10 -8 5 -23 7 -32 4 -11 -3 -18 0 -18 7 0 27 -10 0 -15 -39 -4 -33 -2 -42 10
-42 8 0 15 -6 15 -14 0 -28 -104 -32 -136 -5 -10 8 -14 8 -14 0 0 -6 -7 -11
-15 -11 -8 0 -15 7 -15 15 0 16 -15 21 -23 8 -2 -5 -2 -2 -1 5 2 6 -1 12 -5
12 -5 0 -11 -6 -14 -12 -2 -7 -7 -11 -10 -8 -4 3 6 19 21 35 16 18 20 26 10
22 -12 -4 -19 0 -23 14 -8 25 -41 44 -48 26 -3 -6 -6 -1 -7 13 -2 21 -3 20
-11 -10 -5 -19 -10 -50 -10 -68 -1 -26 -4 -30 -14 -22 -7 6 -17 10 -21 9 -22
-4 -34 2 -34 16 0 8 4 15 9 15 4 0 6 11 3 25 -6 31 -17 33 -17 3 -1 -13 -4
-32 -8 -44 -7 -19 -1 -23 55 -38 69 -18 182 -35 268 -41 30 -2 96 -7 145 -10
73 -6 98 -4 135 10 88 34 221 65 238 56 23 -12 172 -19 178 -9 3 4 17 5 32 2
21 -5 25 -4 15 6 -6 7 -9 19 -6 26 3 8 0 14 -6 14 -14 0 -14 33 0 47 6 6 17
22 23 35 6 12 17 24 24 24 7 1 15 3 20 4 4 1 10 2 15 1 4 0 7 3 7 7 0 10 -66
9 -76 -1 -4 -4 -24 -7 -44 -7 -33 0 -36 -2 -38 -32 -4 -49 -52 -78 -66 -41 -4
9 -1 20 6 25 13 8 11 9 -14 12 -7 0 -13 15 -14 34 -1 41 -14 55 -15 16 0 -19
-3 -24 -7 -14 -8 17 -63 21 -74 5 -4 -5 -8 2 -8 18 0 15 -3 27 -8 27 -4 0 -7
-16 -6 -35z m-29 -57 c1 -10 -4 -18 -11 -18 -8 0 -16 8 -18 18 -3 12 1 18 12
18 9 0 17 -8 17 -18z m-609 -93 c-8 -19 -14 -22 -20 -13 -12 19 -10 26 10 31
9 3 18 5 19 6 2 0 -3 -10 -9 -24z m272 -45 c0 -5 -5 -10 -11 -10 -5 0 -7 5 -4
10 3 6 8 10 11 10 2 0 4 -4 4 -10z"/>
<path d="M200 2529 c0 -6 5 -20 12 -32 11 -21 11 -21 19 -2 12 32 10 41 -11
42 -11 1 -20 -3 -20 -8z"/>
<path d="M1790 2522 c0 -4 14 -13 30 -19 24 -9 30 -9 30 2 0 13 -21 25 -46 25
-8 0 -14 -4 -14 -8z"/>
<path d="M1180 2485 c0 -8 4 -15 10 -15 5 0 7 7 4 15 -4 8 -8 15 -10 15 -2 0
-4 -7 -4 -15z"/>
<path d="M2944 2427 c-1 -84 -35 -169 -85 -212 -49 -41 -16 -29 38 14 86 69
126 146 104 201 -9 22 -10 20 -11 -20 0 -25 -5 -52 -10 -60 -8 -11 -10 0 -9
40 1 32 -4 67 -12 82 -13 25 -14 23 -15 -45z"/>
<path d="M1215 2421 c-3 -5 -1 -12 5 -16 5 -3 10 1 10 9 0 18 -6 21 -15 7z"/>
<path d="M1730 2415 c0 -9 8 -24 18 -35 16 -18 17 -18 19 8 1 25 -11 41 -29
42 -5 0 -8 -7 -8 -15z"/>
<path d="M1660 2404 c0 -8 5 -12 10 -9 6 4 8 11 5 16 -9 14 -15 11 -15 -7z"/>
<path d="M247 2360 c6 -33 18 -45 20 -20 1 11 -2 20 -7 20 -5 0 -10 6 -13 13
-2 6 -2 1 0 -13z"/>
<path d="M1690 2348 c0 -12 1 -19 3 -17 1 2 9 12 16 22 12 14 11 17 -3 17 -10
0 -16 -8 -16 -22z"/>
<path d="M430 2240 c29 -23 48 -26 31 -6 -6 8 -22 16 -34 20 -21 5 -21 4 3
-14z"/>
<path d="M283 2202 c4 -18 3 -31 -2 -28 -4 3 -7 -10 -5 -29 1 -19 -1 -37 -5
-40 -4 -2 -9 -27 -10 -56 -1 -28 -6 -60 -12 -70 -5 -11 -12 -32 -14 -47 -2
-15 -11 -45 -19 -67 -8 -22 -15 -56 -16 -76 0 -19 -4 -39 -9 -45 -13 -12 -33
-170 -29 -220 2 -22 -2 -43 -9 -49 -10 -8 -9 -25 2 -80 18 -85 19 -109 4 -99
-9 5 -10 -4 -5 -32 13 -67 22 -57 23 27 1 45 5 84 8 87 17 17 28 -34 41 -194
17 -213 16 -212 93 -485 101 -363 146 -557 153 -656 l3 -43 138 0 c135 0 137
0 137 23 0 35 -27 139 -38 146 -5 3 -13 21 -17 38 -3 18 -14 37 -23 43 -15 8
-15 9 2 10 18 0 18 1 3 18 -10 10 -17 22 -17 26 0 4 -9 16 -20 28 -11 12 -20
29 -20 38 0 9 -9 25 -20 35 -11 10 -19 25 -18 33 2 8 -8 21 -21 30 l-24 16 7
-39 c11 -66 -9 -17 -30 73 -15 65 -21 78 -26 60 -4 -13 -5 0 -2 27 4 38 2 46
-6 35 -9 -12 -10 -12 -6 5 3 11 -1 52 -8 90 -8 39 -12 73 -9 77 2 4 -2 5 -10
2 -10 -4 -13 3 -11 28 3 30 3 31 -5 8 l-9 -25 -1 28 c-1 16 -5 36 -10 45 -11
23 -23 101 -12 83 5 -7 11 -9 14 -4 3 5 2 15 -4 23 -5 8 -9 21 -9 29 0 11 3
11 15 1 13 -11 15 -8 15 14 0 24 3 26 23 21 22 -6 22 -6 -2 15 -26 23 -21 41
5 19 16 -13 16 -12 3 9 -8 12 -17 22 -21 22 -3 0 -15 3 -25 6 -15 5 -16 4 -3
-6 13 -10 13 -11 0 -7 -8 2 -17 12 -18 22 -3 10 0 15 7 11 6 -4 11 -3 11 2 0
6 -7 12 -15 16 -8 3 -12 12 -9 21 4 10 0 15 -14 15 -11 0 -27 11 -36 25 -11
17 -13 25 -5 25 7 0 9 3 6 7 -4 3 1 12 11 19 14 10 15 15 4 26 -11 11 -12 10
-6 -6 5 -14 4 -17 -4 -12 -7 4 -15 0 -18 -9 -5 -12 -13 -7 -35 22 -16 21 -29
42 -29 46 0 5 -7 15 -15 23 -26 26 -18 224 9 224 6 0 12 8 12 18 1 31 13 136
19 166 3 16 7 34 8 40 1 6 -5 10 -13 8 -9 -1 -4 8 11 21 22 20 25 27 15 45 -8
16 -15 18 -28 11 -14 -8 -16 -7 -12 6 3 8 18 15 33 16 26 0 26 0 4 11 -27 13
-29 25 -5 31 14 4 13 5 -3 6 -31 2 -30 38 1 45 13 4 24 11 24 17 0 8 -5 8 -15
-1 -20 -16 -38 -4 -25 19 6 12 5 22 -3 30 -9 10 -8 11 6 5 13 -5 16 -2 11 9
-3 10 1 17 13 20 16 4 16 5 1 6 -17 1 -27 41 -10 41 15 0 11 39 -5 52 -15 12
-16 9 -10 -20z m17 -318 c0 -8 -4 -12 -10 -9 -5 3 -10 10 -10 16 0 5 5 9 10 9
6 0 10 -7 10 -16z m-43 -846 c-3 -8 -6 -5 -6 6 -1 11 2 17 5 13 3 -3 4 -12 1
-19z m99 -286 c28 -132 28 -173 -1 -70 -9 35 -28 95 -41 134 -13 39 -24 93
-24 120 l1 49 19 -55 c10 -30 31 -110 46 -178z m224 -356 c0 -3 -4 -8 -10 -11
-5 -3 -10 -1 -10 4 0 6 5 11 10 11 6 0 10 -2 10 -4z"/>
<path d="M508 2193 c7 -3 16 -2 19 1 4 3 -2 6 -13 5 -11 0 -14 -3 -6 -6z"/>
<path d="M1718 2073 c6 -2 18 -2 25 0 6 3 1 5 -13 5 -14 0 -19 -2 -12 -5z"/>
<path d="M2155 2056 c17 -8 32 -12 34 -10 7 6 -2 11 -34 17 l-30 6 30 -13z"/>
<path d="M870 2050 c0 -5 5 -10 10 -10 6 0 10 5 10 10 0 6 -4 10 -10 10 -5 0
-10 -4 -10 -10z"/>
<path d="M2306 2035 c4 -8 8 -15 10 -15 2 0 4 7 4 15 0 8 -4 15 -10 15 -5 0
-7 -7 -4 -15z"/>
<path d="M1995 2030 c-3 -6 1 -7 9 -4 18 7 21 14 7 14 -6 0 -13 -4 -16 -10z"/>
<path d="M995 2020 c3 -5 8 -10 11 -10 2 0 4 5 4 10 0 6 -5 10 -11 10 -5 0 -7
-4 -4 -10z"/>
<path d="M1565 2010 c-7 -12 2 -12 30 0 19 8 19 9 -2 9 -12 1 -25 -3 -28 -9z"/>
<path d="M181 1878 c-30 -98 -26 -96 -76 -40 -42 47 -52 51 -97 43 -4 0 -7
-424 -7 -941 l1 -940 230 0 230 0 -6 22 c-4 13 -19 70 -32 128 -40 163 -120
466 -179 675 -29 105 -60 217 -68 250 -9 33 -26 94 -38 135 -17 60 -22 104
-23 215 -1 133 1 149 41 314 24 96 41 176 39 178 -1 2 -8 -16 -15 -39z"/>
<path d="M2731 1544 c0 -11 3 -14 6 -6 3 7 2 16 -1 19 -3 4 -6 -2 -5 -13z"/>
<path d="M2920 1545 c0 -8 4 -15 10 -15 5 0 7 7 4 15 -4 8 -8 15 -10 15 -2 0
-4 -7 -4 -15z"/>
<path d="M2336 1515 c4 -8 11 -15 16 -15 6 0 5 6 -2 15 -7 8 -14 15 -16 15 -2
0 -1 -7 2 -15z"/>
<path d="M2425 1520 c3 -5 8 -10 11 -10 2 0 4 5 4 10 0 6 -5 10 -11 10 -5 0
-7 -4 -4 -10z"/>
<path d="M817 1513 c-4 -3 -7 -11 -7 -17 0 -6 5 -5 12 2 6 6 9 14 7 17 -3 3
-9 2 -12 -2z"/>
<path d="M2530 1489 c0 -5 5 -7 10 -4 6 3 10 8 10 11 0 2 -4 4 -10 4 -5 0 -10
-5 -10 -11z"/>
<path d="M2850 1490 c8 -5 20 -10 25 -10 6 0 3 5 -5 10 -8 5 -19 10 -25 10 -5
0 -3 -5 5 -10z"/>
<path d="M2425 1480 c3 -5 8 -10 11 -10 2 0 4 5 4 10 0 6 -5 10 -11 10 -5 0
-7 -4 -4 -10z"/>
<path d="M2500 1473 c0 -13 5 -23 10 -23 13 0 13 11 0 30 -8 12 -10 11 -10 -7z"/>
<path d="M2620 1480 c0 -6 7 -10 15 -10 8 0 15 2 15 4 0 2 -7 6 -15 10 -8 3
-15 1 -15 -4z"/>
<path d="M2391 1454 c0 -11 3 -14 6 -6 3 7 2 16 -1 19 -3 4 -6 -2 -5 -13z"/>
<path d="M2540 1464 c0 -7 27 -34 35 -34 3 0 1 9 -5 20 -10 18 -30 28 -30 14z"/>
<path d="M2860 1460 c0 -5 5 -10 11 -10 5 0 7 5 4 10 -3 6 -8 10 -11 10 -2 0
-4 -4 -4 -10z"/>
<path d="M2141 1434 c0 -11 3 -14 6 -6 3 7 2 16 -1 19 -3 4 -6 -2 -5 -13z"/>
<path d="M2281 1434 c0 -11 3 -14 6 -6 3 7 2 16 -1 19 -3 4 -6 -2 -5 -13z"/>
<path d="M2070 1421 c0 -5 7 -11 15 -15 9 -3 15 0 15 9 0 8 -7 15 -15 15 -8 0
-15 -4 -15 -9z"/>
<path d="M305 1410 c-3 -6 1 -7 9 -4 18 7 21 14 7 14 -6 0 -13 -4 -16 -10z"/>
<path d="M346 1347 c3 -10 9 -15 12 -12 3 3 0 11 -7 18 -10 9 -11 8 -5 -6z"/>
<path d="M415 1246 c-13 -15 -7 -52 11 -67 13 -10 13 -8 4 15 -6 18 -6 25 0
21 6 -3 10 -1 10 4 0 6 -6 11 -12 11 -10 0 -9 3 1 9 7 5 9 11 5 14 -5 3 -14 0
-19 -7z"/>
<path d="M530 1231 c0 -6 5 -13 10 -16 6 -3 10 1 10 9 0 9 -4 16 -10 16 -5 0
-10 -4 -10 -9z"/>
<path d="M487 1203 c-3 -5 0 -21 7 -38 l13 -30 1 32 c1 31 -11 52 -21 36z"/>
<path d="M475 1130 c3 -5 11 -10 16 -10 6 0 7 5 4 10 -3 6 -11 10 -16 10 -6 0
-7 -4 -4 -10z"/>
<path d="M445 1030 c3 -5 8 -10 11 -10 2 0 4 5 4 10 0 6 -5 10 -11 10 -5 0 -7
-4 -4 -10z"/>
<path d="M500 980 c0 -5 5 -10 11 -10 5 0 7 5 4 10 -3 6 -8 10 -11 10 -2 0 -4
-4 -4 -10z"/>
<path d="M411 944 c0 -11 3 -14 6 -6 3 7 2 16 -1 19 -3 4 -6 -2 -5 -13z"/>
<path d="M512 619 c6 -16 12 -28 15 -26 7 7 -8 57 -18 57 -4 0 -3 -14 3 -31z"/>
<path d="M530 542 c0 -23 4 -42 9 -42 6 0 7 17 4 38 -8 51 -13 53 -13 4z"/>
<path d="M1398 563 c7 -3 16 -2 19 1 4 3 -2 6 -13 5 -11 0 -14 -3 -6 -6z"/>
<path d="M1560 530 c0 -5 5 -10 10 -10 6 0 10 5 10 10 0 6 -4 10 -10 10 -5 0
-10 -4 -10 -10z"/>
<path d="M1408 503 c7 -3 16 -2 19 1 4 3 -2 6 -13 5 -11 0 -14 -3 -6 -6z"/>
<path d="M1015 470 c-3 -5 -1 -10 4 -10 6 0 11 5 11 10 0 6 -2 10 -4 10 -3 0
-8 -4 -11 -10z"/>
</g>
</svg>
